<mxfile host="65bd71144e">
    <diagram id="gilb0GL4Jkc1kdgtAkKy" name="Page-1">
        <mxGraphModel dx="844" dy="344" grid="1" gridSize="10" guides="1" tooltips="1" connect="1" arrows="1" fold="1" page="1" pageScale="1" pageWidth="850" pageHeight="1100" math="0" shadow="0">
            <root>
                <mxCell id="0"/>
                <mxCell id="1" parent="0"/>
                <mxCell id="2" value="&lt;h1&gt;Algoritma Menghitung Luas Lingkaran&lt;/h1&gt;&lt;p&gt;1. Mulai&lt;/p&gt;&lt;p&gt;2. Deklarasikan variabel r sebagai input nilai jari-jari lingkaran&lt;/p&gt;&lt;p&gt;3. Deklarasikan variabel pi berupa konstanta yang bernilai 3.14&lt;/p&gt;&lt;p&gt;4. Buat fungsi dengan nama luasLingkaran&lt;/p&gt;&lt;p&gt;5. Didalam fungsi, deklarasikan variabel hasil untuk menampung hasil perhitungan dengan menjalankan formula pi x r x r&lt;/p&gt;&lt;p&gt;6. kembalikan variabel hasil sebagai output&lt;/p&gt;&lt;p&gt;7. selesai&lt;/p&gt;" style="text;html=1;strokeColor=none;fillColor=none;spacing=5;spacingTop=-20;whiteSpace=wrap;overflow=hidden;rounded=0;" vertex="1" parent="1">
                    <mxGeometry x="40" y="20" width="190" height="380" as="geometry"/>
                </mxCell>
                <mxCell id="3" value="&lt;h1&gt;Algoritma Menghitung Keliling Lingkaran&lt;/h1&gt;&lt;p&gt;1. Mulai&lt;/p&gt;&lt;p&gt;2. Deklarasikan variabel r sebagai input nilai jari-jari lingkaran&lt;/p&gt;&lt;p&gt;3. Deklarasikan variabel pi berupa konstanta yang bernilai 3.14&lt;/p&gt;&lt;p&gt;4. Buat fungsi dengan nama kelilingLingkaran&lt;/p&gt;&lt;p&gt;5. Didalam fungsi, deklarasikan variabel hasil untuk menampung hasil perhitungan dengan menjalankan formula 2 x pi x r&lt;/p&gt;&lt;p&gt;6. kembalikan variabel hasil sebagai output&lt;/p&gt;&lt;p&gt;7. selesai&lt;/p&gt;" style="text;html=1;strokeColor=none;fillColor=none;spacing=5;spacingTop=-20;whiteSpace=wrap;overflow=hidden;rounded=0;" vertex="1" parent="1">
                    <mxGeometry x="290" y="20" width="190" height="420" as="geometry"/>
                </mxCell>
            </root>
        </mxGraphModel>
    </diagram>
</mxfile>